<?xml version="1.0" encoding="UTF-8" standalone="no"?>
<!-- Created with Inkscape (http://www.inkscape.org/) -->

<svg
   xmlns:dc="http://purl.org/dc/elements/1.1/"
   xmlns:cc="http://creativecommons.org/ns#"
   xmlns:rdf="http://www.w3.org/1999/02/22-rdf-syntax-ns#"
   xmlns:svg="http://www.w3.org/2000/svg"
   xmlns="http://www.w3.org/2000/svg"
   xmlns:sodipodi="http://sodipodi.sourceforge.net/DTD/sodipodi-0.dtd"
   xmlns:inkscape="http://www.inkscape.org/namespaces/inkscape"
   width="566.12799"
   height="371.27368"
   id="svg2"
   version="1.1"
   inkscape:version="0.48.2 r9819"
   sodipodi:docname="Results.svg">
  <defs
     id="defs4">
    <marker
       inkscape:stockid="DotM"
       orient="auto"
       refY="0"
       refX="0"
       id="DotM"
       style="overflow:visible">
      <path
         id="path4646"
         d="m -2.5,-1 c 0,2.76 -2.24,5 -5,5 -2.76,0 -5,-2.24 -5,-5 0,-2.76 2.24,-5 5,-5 2.76,0 5,2.24 5,5 z"
         style="fill-rule:evenodd;stroke:#000000;stroke-width:1pt;marker-start:none;marker-end:none"
         transform="matrix(0.4,0,0,0.4,2.96,0.4)"
         inkscape:connector-curvature="0" />
    </marker>
    <marker
       inkscape:stockid="DotS"
       orient="auto"
       refY="0"
       refX="0"
       id="DotS"
       style="overflow:visible">
      <path
         id="path4649"
         d="m -2.5,-1 c 0,2.76 -2.24,5 -5,5 -2.76,0 -5,-2.24 -5,-5 0,-2.76 2.24,-5 5,-5 2.76,0 5,2.24 5,5 z"
         style="fill-rule:evenodd;stroke:#000000;stroke-width:1pt;marker-start:none;marker-end:none"
         transform="matrix(0.2,0,0,0.2,1.48,0.2)"
         inkscape:connector-curvature="0" />
    </marker>
    <clipPath
       id="clipEmfPath1"
       clipPathUnits="userSpaceOnUse">
      <rect
         id="rect2990"
         height="482.26257"
         width="489.75888"
         y="37.481544"
         x="97.452019" />
    </clipPath>
    <marker
       inkscape:stockid="DotM"
       orient="auto"
       refY="0"
       refX="0"
       id="DotM-1"
       style="overflow:visible">
      <path
         inkscape:connector-curvature="0"
         id="path4646-5"
         d="m -2.5,-1 c 0,2.76 -2.24,5 -5,5 -2.76,0 -5,-2.24 -5,-5 0,-2.76 2.24,-5 5,-5 2.76,0 5,2.24 5,5 z"
         style="fill-rule:evenodd;stroke:#000000;stroke-width:1pt;marker-start:none;marker-end:none"
         transform="matrix(0.4,0,0,0.4,2.96,0.4)" />
    </marker>
    <marker
       inkscape:stockid="DotM"
       orient="auto"
       refY="0"
       refX="0"
       id="marker5768"
       style="overflow:visible">
      <path
         inkscape:connector-curvature="0"
         id="path5770"
         d="m -2.5,-1 c 0,2.76 -2.24,5 -5,5 -2.76,0 -5,-2.24 -5,-5 0,-2.76 2.24,-5 5,-5 2.76,0 5,2.24 5,5 z"
         style="fill-rule:evenodd;stroke:#000000;stroke-width:1pt;marker-start:none;marker-end:none"
         transform="matrix(0.4,0,0,0.4,2.96,0.4)" />
    </marker>
    <marker
       inkscape:stockid="DotM"
       orient="auto"
       refY="0"
       refX="0"
       id="DotM-7"
       style="overflow:visible">
      <path
         inkscape:connector-curvature="0"
         id="path4646-6"
         d="m -2.5,-1 c 0,2.76 -2.24,5 -5,5 -2.76,0 -5,-2.24 -5,-5 0,-2.76 2.24,-5 5,-5 2.76,0 5,2.24 5,5 z"
         style="fill-rule:evenodd;stroke:#000000;stroke-width:1pt;marker-start:none;marker-end:none"
         transform="matrix(0.4,0,0,0.4,2.96,0.4)" />
    </marker>
    <marker
       inkscape:stockid="DotM"
       orient="auto"
       refY="0"
       refX="0"
       id="marker5768-1"
       style="overflow:visible">
      <path
         inkscape:connector-curvature="0"
         id="path5770-4"
         d="m -2.5,-1 c 0,2.76 -2.24,5 -5,5 -2.76,0 -5,-2.24 -5,-5 0,-2.76 2.24,-5 5,-5 2.76,0 5,2.24 5,5 z"
         style="fill-rule:evenodd;stroke:#000000;stroke-width:1pt;marker-start:none;marker-end:none"
         transform="matrix(0.4,0,0,0.4,2.96,0.4)" />
    </marker>
  </defs>
  <sodipodi:namedview
     id="base"
     pagecolor="#ffffff"
     bordercolor="#666666"
     borderopacity="1.0"
     inkscape:pageopacity="0.0"
     inkscape:pageshadow="2"
     inkscape:zoom="0.98994949"
     inkscape:cx="235.34239"
     inkscape:cy="160.10859"
     inkscape:document-units="px"
     inkscape:current-layer="layer1"
     showgrid="false"
     fit-margin-top="0"
     fit-margin-left="0"
     fit-margin-right="0"
     fit-margin-bottom="0"
     inkscape:window-width="1680"
     inkscape:window-height="1002"
     inkscape:window-x="0"
     inkscape:window-y="0"
     inkscape:window-maximized="1" />
  <metadata
     id="metadata7">
    <rdf:RDF>
      <cc:Work
         rdf:about="">
        <dc:format>image/svg+xml</dc:format>
        <dc:type
           rdf:resource="http://purl.org/dc/dcmitype/StillImage" />
        <dc:title></dc:title>
      </cc:Work>
    </rdf:RDF>
  </metadata>
  <g
     inkscape:label="Layer 1"
     inkscape:groupmode="layer"
     id="layer1"
     transform="translate(479.00299,-395.0625)">
    <g
       id="g3103"
       inkscape:export-filename="/Users/PaymahnMoghadasian/Desktop/DataAwareSliders/resultspng.png"
       inkscape:export-xdpi="180"
       inkscape:export-ydpi="180">
      <path
         id="path3141"
         d="m -400.04982,395.56076 0,293.71736 486.691254,0 0,-293.71736 -486.691254,0 z"
         style="fill:#f0f0f0;fill-opacity:1;fill-rule:evenodd;stroke:none"
         inkscape:connector-curvature="0" />
      <path
         inkscape:connector-curvature="0"
         id="path3779"
         d="m -400.52548,424.93249 485.88337,0"
         style="fill:none;stroke:#000000;stroke-width:1;stroke-linecap:butt;stroke-linejoin:miter;stroke-miterlimit:4;stroke-opacity:1;stroke-dasharray:3, 3;stroke-dashoffset:0" />
      <path
         inkscape:connector-curvature="0"
         id="path3779-7"
         d="m -398.90789,513.0477 485.88337,0"
         style="fill:none;stroke:#000000;stroke-width:1;stroke-linecap:butt;stroke-linejoin:miter;stroke-miterlimit:4;stroke-opacity:1;stroke-dasharray:3, 3;stroke-dashoffset:0" />
      <path
         inkscape:connector-curvature="0"
         id="path3779-1"
         d="m -398.90789,601.16291 485.88337,0"
         style="fill:none;stroke:#000000;stroke-width:1;stroke-linecap:butt;stroke-linejoin:miter;stroke-miterlimit:4;stroke-opacity:1;stroke-dasharray:3, 3;stroke-dashoffset:0" />
      <path
         id="path3143"
         d="m -400.04982,689.27812 486.691254,0"
         style="fill:none;stroke:#000000;stroke-width:0.67249787px;stroke-linecap:butt;stroke-linejoin:miter;stroke-miterlimit:4;stroke-opacity:1;stroke-dasharray:none"
         inkscape:connector-curvature="0" />
      <path
         id="path3155"
         d="m -400.04982,395.56076 0,293.71736"
         style="fill:none;stroke:#000000;stroke-width:0.67249787px;stroke-linecap:butt;stroke-linejoin:miter;stroke-miterlimit:4;stroke-opacity:1;stroke-dasharray:none"
         inkscape:connector-curvature="0" />
      <path
         id="path3157"
         d="m -400.04982,689.27812 -8.82905,0"
         style="fill:none;stroke:#000000;stroke-width:1.28385961px;stroke-linecap:butt;stroke-linejoin:miter;stroke-miterlimit:4;stroke-opacity:1;stroke-dasharray:none"
         inkscape:connector-curvature="0" />
      <path
         id="path3159"
         d="m -400.04982,601.16291 -8.82905,0"
         style="fill:none;stroke:#000000;stroke-width:1.28385961px;stroke-linecap:butt;stroke-linejoin:miter;stroke-miterlimit:4;stroke-opacity:1;stroke-dasharray:none"
         inkscape:connector-curvature="0" />
      <path
         id="path3161"
         d="m -400.04982,513.0477 -8.82905,0"
         style="fill:none;stroke:#000000;stroke-width:1.28385961px;stroke-linecap:butt;stroke-linejoin:miter;stroke-miterlimit:4;stroke-opacity:1;stroke-dasharray:none"
         inkscape:connector-curvature="0" />
      <path
         id="path3163"
         d="m -400.04982,424.93249 -8.82905,0"
         style="fill:none;stroke:#000000;stroke-width:1.28385961px;stroke-linecap:butt;stroke-linejoin:miter;stroke-miterlimit:4;stroke-opacity:1;stroke-dasharray:none"
         inkscape:connector-curvature="0" />
      <path
         id="path3145"
         d="m -350.68977,689.27812 0,5.40555"
         style="fill:none;stroke:#000000;stroke-width:0.67123502px;stroke-linecap:butt;stroke-linejoin:miter;stroke-miterlimit:4;stroke-opacity:1;stroke-dasharray:none"
         inkscape:connector-curvature="0" />
      <path
         id="path3147"
         d="m -281.83335,689.27812 0,5.40555"
         style="fill:none;stroke:#000000;stroke-width:0.67123502px;stroke-linecap:butt;stroke-linejoin:miter;stroke-miterlimit:4;stroke-opacity:1;stroke-dasharray:none"
         inkscape:connector-curvature="0" />
      <path
         id="path3175"
         d="m -376.12649,531.51267 0,157.76545 25.43672,0 0,-157.76545 -25.43672,0 z"
         style="fill:#3e58ac;fill-opacity:1;fill-rule:evenodd;stroke:none"
         inkscape:connector-curvature="0" />
      <path
         id="path3177"
         d="m -350.68977,689.27812 0,-157.76545 -25.43672,0 0,157.76545 25.43672,0 z"
         clip-path="url(#clipEmfPath0)"
         style="fill:none;stroke:#000000;stroke-width:0.51141715px;stroke-linecap:butt;stroke-linejoin:miter;stroke-miterlimit:4;stroke-opacity:1;stroke-dasharray:none"
         inkscape:connector-curvature="0" />
      <path
         id="path3179"
         d="m -307.29143,465.5937 0,223.68442 25.45808,0 0,-223.68442 -25.45808,0 z"
         style="fill:#3e58ac;fill-opacity:1;fill-rule:evenodd;stroke:none"
         inkscape:connector-curvature="0" />
      <path
         id="path3181"
         d="m -281.83335,689.27812 0,-223.68442 -25.45808,0 0,223.68442 25.45808,0 z"
         clip-path="url(#clipEmfPath0)"
         style="fill:none;stroke:#000000;stroke-width:0.51141715px;stroke-linecap:butt;stroke-linejoin:miter;stroke-miterlimit:4;stroke-opacity:1;stroke-dasharray:none"
         inkscape:connector-curvature="0" />
      <path
         id="path3183"
         d="m -350.68977,495.39596 0,193.88216 25.43672,0 0,-193.88216 -25.43672,0 z"
         style="fill:#2eb848;fill-opacity:1;fill-rule:evenodd;stroke:none"
         inkscape:connector-curvature="0" />
      <path
         id="path3185"
         d="m -325.25305,689.27812 0,-193.88216 -25.43672,0 0,193.88216 25.43672,0 z"
         clip-path="url(#clipEmfPath0)"
         style="fill:none;stroke:#000000;stroke-width:0.51141715px;stroke-linecap:butt;stroke-linejoin:miter;stroke-miterlimit:4;stroke-opacity:1;stroke-dasharray:none"
         inkscape:connector-curvature="0" />
      <path
         id="path3187"
         d="m -281.83335,489.55988 0,199.71824 25.43672,0 0,-199.71824 -25.43672,0 z"
         style="fill:#2eb848;fill-opacity:1;fill-rule:evenodd;stroke:none"
         inkscape:connector-curvature="0" />
      <path
         id="path3189"
         d="m -256.39663,689.27812 0,-199.71824 -25.43672,0 0,199.71824 25.43672,0 z"
         clip-path="url(#clipEmfPath0)"
         style="fill:none;stroke:#000000;stroke-width:0.51141715px;stroke-linecap:butt;stroke-linejoin:miter;stroke-miterlimit:4;stroke-opacity:1;stroke-dasharray:none"
         inkscape:connector-curvature="0" />
      <path
         id="path3191"
         d="m -366.60107,541.17569 6.36452,0 -6.36452,0 z m 3.18227,0 0,-19.32603 0,19.32603 z m -3.18227,-19.32603 6.36452,0 -6.36452,0 z"
         style="fill:#000000;fill-opacity:1;fill-rule:evenodd;stroke:none"
         inkscape:connector-curvature="0" />
      <path
         id="path3193"
         d="m -366.60107,541.17569 6.36452,0 m -3.18225,0 0,-19.32603 m -3.18227,0 6.36452,0"
         style="fill:none;stroke:#000000;stroke-width:0.51141715px;stroke-linecap:butt;stroke-linejoin:miter;stroke-miterlimit:4;stroke-opacity:1;stroke-dasharray:none"
         inkscape:connector-curvature="0" />
      <path
         id="path3195"
         d="m -297.74465,479.80119 6.36452,0 -6.36452,0 z m 3.18226,0 0,-28.46283 0,28.46283 z m -3.18226,-28.46283 6.36452,0 -6.36452,0 z"
         style="fill:#000000;fill-opacity:1;fill-rule:evenodd;stroke:none"
         inkscape:connector-curvature="0" />
      <path
         id="path3197"
         d="m -297.74465,479.80119 6.36452,0 m -3.18226,0 0,-28.46283 m -3.18226,0 6.36452,0"
         style="fill:none;stroke:#000000;stroke-width:0.51141715px;stroke-linecap:butt;stroke-linejoin:miter;stroke-miterlimit:4;stroke-opacity:1;stroke-dasharray:none"
         inkscape:connector-curvature="0" />
      <path
         id="path3199"
         d="m -341.14299,505.29816 6.34316,0 -6.34316,0 z m 3.18226,0 0,-19.8044 0,19.8044 z m -3.18226,-19.8044 6.34316,0 -6.34316,0 z"
         style="fill:#000000;fill-opacity:1;fill-rule:evenodd;stroke:none"
         inkscape:connector-curvature="0" />
      <path
         id="path3201"
         d="m -341.14299,505.29816 6.34316,0 m -3.1609,0 0,-19.8044 m -3.18226,0 6.34316,0"
         style="fill:none;stroke:#000000;stroke-width:0.51141715px;stroke-linecap:butt;stroke-linejoin:miter;stroke-miterlimit:4;stroke-opacity:1;stroke-dasharray:none"
         inkscape:connector-curvature="0" />
      <path
         id="path3203"
         d="m -272.30793,499.12722 6.36452,0 -6.36452,0 z m 3.18226,0 0,-19.18251 0,19.18251 z m -3.18226,-19.18251 6.36452,0 -6.36452,0 z"
         style="fill:#000000;fill-opacity:1;fill-rule:evenodd;stroke:none"
         inkscape:connector-curvature="0" />
      <path
         id="path3205"
         d="m -272.30793,499.12722 6.36452,0 m -3.18226,0 0,-19.18251 m -3.18226,0 6.36452,0"
         style="fill:none;stroke:#000000;stroke-width:0.51141715px;stroke-linecap:butt;stroke-linejoin:miter;stroke-miterlimit:4;stroke-opacity:1;stroke-dasharray:none"
         inkscape:connector-curvature="0" />
      <path
         id="path3207"
         d="m -400.04982,395.56076 486.691254,0 0,293.71736 -486.691254,0 0,-293.71736 z"
         style="fill:none;stroke:#000000;stroke-width:0.97799999;stroke-linecap:butt;stroke-linejoin:miter;stroke-miterlimit:4;stroke-opacity:1;stroke-dasharray:none"
         inkscape:connector-curvature="0" />
      <path
         id="path3288"
         d="m -190.28217,689.27812 0,5.40555"
         style="fill:none;stroke:#000000;stroke-width:0.67123502px;stroke-linecap:butt;stroke-linejoin:miter;stroke-miterlimit:4;stroke-opacity:1;stroke-dasharray:none"
         inkscape:connector-curvature="0" />
      <path
         id="path3290"
         d="m -121.42575,689.27812 0,5.40555"
         style="fill:none;stroke:#000000;stroke-width:0.67123502px;stroke-linecap:butt;stroke-linejoin:miter;stroke-miterlimit:4;stroke-opacity:1;stroke-dasharray:none"
         inkscape:connector-curvature="0" />
      <path
         id="path3318"
         d="m -215.71888,506.92461 0,182.35351 25.43671,0 0,-182.35351 -25.43671,0 z"
         style="fill:#3e58ac;fill-opacity:1;fill-rule:evenodd;stroke:none"
         inkscape:connector-curvature="0" />
      <path
         id="path3320"
         d="m -190.28217,689.27812 0,-182.35351 -25.43671,0 0,182.35351 25.43671,0 z"
         clip-path="url(#clipEmfPath0)"
         style="fill:none;stroke:#000000;stroke-width:0.51141715px;stroke-linecap:butt;stroke-linejoin:miter;stroke-miterlimit:4;stroke-opacity:1;stroke-dasharray:none"
         inkscape:connector-curvature="0" />
      <path
         id="path3322"
         d="m -146.88383,446.65036 0,242.62776 25.45808,0 0,-242.62776 -25.45808,0 z"
         style="fill:#3e58ac;fill-opacity:1;fill-rule:evenodd;stroke:none"
         inkscape:connector-curvature="0" />
      <path
         id="path3324"
         d="m -121.42575,689.27812 0,-242.62776 -25.45808,0 0,242.62776 25.45808,0 z"
         clip-path="url(#clipEmfPath0)"
         style="fill:none;stroke:#000000;stroke-width:0.51141715px;stroke-linecap:butt;stroke-linejoin:miter;stroke-miterlimit:4;stroke-opacity:1;stroke-dasharray:none"
         inkscape:connector-curvature="0" />
      <path
         id="path3326"
         d="m -190.28217,479.37066 0,209.90746 25.43673,0 0,-209.90746 -25.43673,0 z"
         style="fill:#2eb848;fill-opacity:1;fill-rule:evenodd;stroke:none"
         inkscape:connector-curvature="0" />
      <path
         id="path3328"
         d="m -164.84544,689.27812 0,-209.90746 -25.43673,0 0,209.90746 25.43673,0 z"
         clip-path="url(#clipEmfPath0)"
         style="fill:none;stroke:#000000;stroke-width:0.51141715px;stroke-linecap:butt;stroke-linejoin:miter;stroke-miterlimit:4;stroke-opacity:1;stroke-dasharray:none"
         inkscape:connector-curvature="0" />
      <path
         id="path3330"
         d="m -121.42575,496.40053 0,192.87759 25.436718,0 0,-192.87759 -25.436718,0 z"
         style="fill:#2eb848;fill-opacity:1;fill-rule:evenodd;stroke:none"
         inkscape:connector-curvature="0" />
      <path
         id="path3332"
         d="m -95.989032,689.27812 0,-192.87759 -25.436718,0 0,192.87759 25.436718,0 z"
         clip-path="url(#clipEmfPath0)"
         style="fill:none;stroke:#000000;stroke-width:0.51141715px;stroke-linecap:butt;stroke-linejoin:miter;stroke-miterlimit:4;stroke-opacity:1;stroke-dasharray:none"
         inkscape:connector-curvature="0" />
      <path
         id="path3334"
         d="m -206.19346,520.79725 6.36452,0 -6.36452,0 z m 3.18226,0 0,-27.79312 0,27.79312 z m -3.18226,-27.79312 6.36452,0 -6.36452,0 z"
         style="fill:#000000;fill-opacity:1;fill-rule:evenodd;stroke:none"
         inkscape:connector-curvature="0" />
      <path
         id="path3336"
         d="m -206.19346,520.79725 6.36452,0 m -3.18226,0 0,-27.79312 m -3.18226,0 6.36452,0"
         style="fill:none;stroke:#000000;stroke-width:0.51141715px;stroke-linecap:butt;stroke-linejoin:miter;stroke-miterlimit:4;stroke-opacity:1;stroke-dasharray:none"
         inkscape:connector-curvature="0" />
      <path
         id="path3338"
         d="m -137.33705,466.07206 6.36452,0 -6.36452,0 z m 3.18226,0 0,-38.8434 0,38.8434 z m -3.18226,-38.8434 6.36452,0 -6.36452,0 z"
         style="fill:#000000;fill-opacity:1;fill-rule:evenodd;stroke:none"
         inkscape:connector-curvature="0" />
      <path
         id="path3342"
         d="m -180.73539,490.32527 6.34317,0 -6.34317,0 z m 3.18226,0 0,-21.86137 0,21.86137 z m -3.18226,-21.86137 6.34317,0 -6.34317,0 z"
         style="fill:#000000;fill-opacity:1;fill-rule:evenodd;stroke:none"
         inkscape:connector-curvature="0" />
      <path
         id="path3344"
         d="m -180.73539,490.32527 6.34317,0 m -3.16091,0 0,-21.86137 m -3.18226,0 6.34317,0"
         style="fill:none;stroke:#000000;stroke-width:0.51141715px;stroke-linecap:butt;stroke-linejoin:miter;stroke-miterlimit:4;stroke-opacity:1;stroke-dasharray:none"
         inkscape:connector-curvature="0" />
      <path
         id="path3346"
         d="m -111.90033,510.034 6.36452,0 -6.36452,0 z m 3.18226,0 0,-27.26693 0,27.26693 z m -3.18226,-27.26693 6.36452,0 -6.36452,0 z"
         style="fill:#000000;fill-opacity:1;fill-rule:evenodd;stroke:none"
         inkscape:connector-curvature="0" />
      <path
         id="path3348"
         d="m -111.90033,510.034 6.36452,0 m -3.18226,0 0,-27.26693 m -3.18226,0 6.36452,0"
         style="fill:none;stroke:#000000;stroke-width:0.51141715px;stroke-linecap:butt;stroke-linejoin:miter;stroke-miterlimit:4;stroke-opacity:1;stroke-dasharray:none"
         inkscape:connector-curvature="0" />
      <path
         id="path3000"
         d="m -29.874552,689.27812 0,5.40555"
         style="fill:none;stroke:#000000;stroke-width:0.67123502px;stroke-linecap:butt;stroke-linejoin:miter;stroke-miterlimit:4;stroke-opacity:1;stroke-dasharray:none"
         inkscape:connector-curvature="0" />
      <path
         id="path3002"
         d="m 38.981874,689.27812 0,5.40555"
         style="fill:none;stroke:#000000;stroke-width:0.67123502px;stroke-linecap:butt;stroke-linejoin:miter;stroke-miterlimit:4;stroke-opacity:1;stroke-dasharray:none"
         inkscape:connector-curvature="0" />
      <path
         id="path3030"
         d="m -55.311276,538.0663 0,151.21182 25.436724,0 0,-151.21182 -25.436724,0 z"
         style="fill:#3e58ac;fill-opacity:1;fill-rule:evenodd;stroke:none"
         inkscape:connector-curvature="0" />
      <path
         transform="matrix(0.27350993,0,0,0.61261127,-89.120112,371.54674)"
         id="path3032"
         d="m 216.6121,518.6509 0,-246.8316 -93.00108,0 0,246.8316 93.00108,0 z"
         clip-path="url(#clipEmfPath1)"
         style="fill:none;stroke:#000000;stroke-width:1.24938488px;stroke-linecap:butt;stroke-linejoin:miter;stroke-miterlimit:4;stroke-opacity:1;stroke-dasharray:none"
         inkscape:connector-curvature="0" />
      <path
         id="path3034"
         d="m 13.523789,525.38958 0,163.88854 25.458085,0 0,-163.88854 -25.458085,0 z"
         style="fill:#3e58ac;fill-opacity:1;fill-rule:evenodd;stroke:none"
         inkscape:connector-curvature="0" />
      <path
         transform="matrix(0.27350993,0,0,0.61261127,-89.120112,371.54674)"
         id="path3036"
         d="m 468.36316,518.6509 0,-267.52454 -93.07918,0 0,267.52454 93.07918,0 z"
         clip-path="url(#clipEmfPath1)"
         style="fill:none;stroke:#000000;stroke-width:1.24938488px;stroke-linecap:butt;stroke-linejoin:miter;stroke-miterlimit:4;stroke-opacity:1;stroke-dasharray:none"
         inkscape:connector-curvature="0" />
      <path
         id="path3038"
         d="m -29.874552,515.7744 0,173.50372 25.4367246,0 0,-173.50372 -25.4367246,0 z"
         style="fill:#2eb848;fill-opacity:1;fill-rule:evenodd;stroke:none"
         inkscape:connector-curvature="0" />
      <path
         transform="matrix(0.27350993,0,0,0.61261127,-89.120112,371.54674)"
         id="path3040"
         d="m 309.61319,518.6509 0,-283.21994 -93.00109,0 0,283.21994 93.00109,0 z"
         clip-path="url(#clipEmfPath1)"
         style="fill:none;stroke:#000000;stroke-width:1.24938488px;stroke-linecap:butt;stroke-linejoin:miter;stroke-miterlimit:4;stroke-opacity:1;stroke-dasharray:none"
         inkscape:connector-curvature="0" />
      <path
         id="path3042"
         d="m 38.981874,522.56721 0,166.71091 25.436697,0 0,-166.71091 -25.436697,0 z"
         style="fill:#2eb848;fill-opacity:1;fill-rule:evenodd;stroke:none"
         inkscape:connector-curvature="0" />
      <path
         transform="matrix(0.27350993,0,0,0.61261127,-89.120112,371.54674)"
         id="path3044"
         d="m 561.36424,518.6509 0,-272.13165 -93.00108,0 0,272.13165 93.00108,0 z"
         clip-path="url(#clipEmfPath1)"
         style="fill:none;stroke:#000000;stroke-width:1.24938488px;stroke-linecap:butt;stroke-linejoin:miter;stroke-miterlimit:4;stroke-opacity:1;stroke-dasharray:none"
         inkscape:connector-curvature="0" />
      <path
         id="path3046"
         d="m -45.785855,547.53797 6.364521,0 -6.364521,0 z m 3.182261,0 0,-18.8955 0,18.8955 z m -3.182261,-18.8955 6.364521,0 -6.364521,0 z"
         style="fill:#000000;fill-opacity:1;fill-rule:evenodd;stroke:none"
         inkscape:connector-curvature="0" />
      <path
         id="path3048"
         d="m -45.785855,547.53797 6.364521,0 m -3.18226,0 0,-18.8955 m -3.182261,0 6.364521,0"
         style="fill:none;stroke:#000000;stroke-width:0.51141715px;stroke-linecap:butt;stroke-linejoin:miter;stroke-miterlimit:4;stroke-opacity:1;stroke-dasharray:none"
         inkscape:connector-curvature="0" />
      <path
         id="path3050"
         d="m 23.070571,535.81798 6.364521,0 -6.364521,0 z m 3.18226,0 0,-20.80897 0,20.80897 z m -3.18226,-20.80897 6.364521,0 -6.364521,0 z"
         style="fill:#000000;fill-opacity:1;fill-rule:evenodd;stroke:none"
         inkscape:connector-curvature="0" />
      <path
         id="path3052"
         d="m 23.070571,535.81798 6.364521,0 m -3.182261,0 0,-20.80897 m -3.18226,0 6.364521,0"
         style="fill:none;stroke:#000000;stroke-width:0.51141715px;stroke-linecap:butt;stroke-linejoin:miter;stroke-miterlimit:4;stroke-opacity:1;stroke-dasharray:none"
         inkscape:connector-curvature="0" />
      <path
         id="path3054"
         d="m -20.32777,527.20737 6.343161,0 -6.343161,0 z m 3.182261,0 0,-22.86594 0,22.86594 z m -3.182261,-22.86594 6.343161,0 -6.343161,0 z"
         style="fill:#000000;fill-opacity:1;fill-rule:evenodd;stroke:none"
         inkscape:connector-curvature="0" />
      <path
         id="path3056"
         d="m -20.32777,527.20737 6.343161,0 m -3.1609,0 0,-22.86594 m -3.182261,0 6.343161,0"
         style="fill:none;stroke:#000000;stroke-width:0.51141715px;stroke-linecap:butt;stroke-linejoin:miter;stroke-miterlimit:4;stroke-opacity:1;stroke-dasharray:none"
         inkscape:connector-curvature="0" />
      <path
         id="path3058"
         d="m 48.507295,531.99104 6.364521,0 -6.364521,0 z m 3.182261,0 0,-18.84766 0,18.84766 z m -3.182261,-18.84766 6.364521,0 -6.364521,0 z"
         style="fill:#000000;fill-opacity:1;fill-rule:evenodd;stroke:none"
         inkscape:connector-curvature="0" />
      <path
         id="path3060"
         d="m 48.507295,531.99104 6.364521,0 m -3.18226,0 0,-18.84766 m -3.182261,0 6.364521,0"
         style="fill:none;stroke:#000000;stroke-width:0.51141715px;stroke-linecap:butt;stroke-linejoin:miter;stroke-miterlimit:4;stroke-opacity:1;stroke-dasharray:none"
         inkscape:connector-curvature="0" />
      <text
         sodipodi:linespacing="125%"
         id="text3611"
         y="696.34357"
         x="-429.68707"
         style="font-size:20px;font-style:normal;font-weight:normal;line-height:125%;letter-spacing:0px;word-spacing:0px;fill:#000000;fill-opacity:1;stroke:none;font-family:Sans"
         xml:space="preserve"><tspan
           id="tspan3615"
           y="696.34357"
           x="-429.68707"
           sodipodi:role="line">0</tspan></text>
      <text
         sodipodi:linespacing="125%"
         id="text3619"
         y="608.22833"
         x="-440.81989"
         style="font-size:20px;font-style:normal;font-weight:normal;line-height:125%;letter-spacing:0px;word-spacing:0px;fill:#000000;fill-opacity:1;stroke:none;font-family:Sans"
         xml:space="preserve"><tspan
           y="608.22833"
           x="-440.81989"
           id="tspan3621"
           sodipodi:role="line">10</tspan></text>
      <text
         sodipodi:linespacing="125%"
         id="text3623"
         y="520.11316"
         x="-440.81989"
         style="font-size:20px;font-style:normal;font-weight:normal;line-height:125%;letter-spacing:0px;word-spacing:0px;fill:#000000;fill-opacity:1;stroke:none;font-family:Sans"
         xml:space="preserve"><tspan
           y="520.11316"
           x="-440.81989"
           id="tspan3625"
           sodipodi:role="line">20</tspan></text>
      <text
         sodipodi:linespacing="125%"
         id="text3627"
         y="431.99304"
         x="-440.81989"
         style="font-size:20px;font-style:normal;font-weight:normal;line-height:125%;letter-spacing:0px;word-spacing:0px;fill:#000000;fill-opacity:1;stroke:none;font-family:Sans"
         xml:space="preserve"><tspan
           y="431.99304"
           x="-440.81989"
           id="tspan3629"
           sodipodi:role="line">30</tspan></text>
      <text
         transform="matrix(0,-1,1,0,0,0)"
         sodipodi:linespacing="125%"
         id="text3635"
         y="-464.44244"
         x="-640.47119"
         style="font-size:20px;font-style:normal;font-weight:normal;line-height:125%;letter-spacing:0px;word-spacing:0px;fill:#000000;fill-opacity:1;stroke:none;font-family:Sans"
         xml:space="preserve"><tspan
           y="-464.44244"
           x="-640.47119"
           id="tspan3637"
           sodipodi:role="line">Acquisition Time (sec)</tspan></text>
      <text
         sodipodi:linespacing="125%"
         id="text3611-1"
         y="719.33582"
         x="-369.69855"
         style="font-size:20px;font-style:normal;font-weight:normal;line-height:125%;letter-spacing:0px;word-spacing:0px;fill:#000000;fill-opacity:1;stroke:none;font-family:Sans"
         xml:space="preserve"><tspan
           id="tspan3615-7"
           y="719.33582"
           x="-369.69855"
           sodipodi:role="line">Low</tspan></text>
      <text
         sodipodi:linespacing="125%"
         id="text3611-1-4"
         y="719.33582"
         x="-302.53647"
         style="font-size:20px;font-style:normal;font-weight:normal;line-height:125%;letter-spacing:0px;word-spacing:0px;fill:#000000;fill-opacity:1;stroke:none;font-family:Sans"
         xml:space="preserve"><tspan
           id="tspan3615-7-0"
           y="719.33582"
           x="-302.53647"
           sodipodi:role="line">High</tspan></text>
      <g
         id="g5809">
        <text
           xml:space="preserve"
           style="font-size:20px;font-style:normal;font-weight:normal;line-height:125%;letter-spacing:0px;word-spacing:0px;fill:#000000;fill-opacity:1;stroke:none;font-family:Sans"
           x="-209.29095"
           y="719.33582"
           id="text3611-1-9"
           sodipodi:linespacing="125%"><tspan
             sodipodi:role="line"
             x="-209.29095"
             y="719.33582"
             id="tspan3615-7-4">Low</tspan></text>
        <text
           xml:space="preserve"
           style="font-size:20px;font-style:normal;font-weight:normal;line-height:125%;letter-spacing:0px;word-spacing:0px;fill:#000000;fill-opacity:1;stroke:none;font-family:Sans"
           x="-142.12888"
           y="719.33582"
           id="text3611-1-4-8"
           sodipodi:linespacing="125%"><tspan
             sodipodi:role="line"
             x="-142.12888"
             y="719.33582"
             id="tspan3615-7-0-8">High</tspan></text>
      </g>
      <g
         id="g5815">
        <text
           xml:space="preserve"
           style="font-size:20px;font-style:normal;font-weight:normal;line-height:125%;letter-spacing:0px;word-spacing:0px;fill:#000000;fill-opacity:1;stroke:none;font-family:Sans"
           x="-48.883343"
           y="719.33582"
           id="text3611-1-2"
           sodipodi:linespacing="125%"><tspan
             sodipodi:role="line"
             x="-48.883343"
             y="719.33582"
             id="tspan3615-7-45">Low</tspan></text>
        <text
           xml:space="preserve"
           style="font-size:20px;font-style:normal;font-weight:normal;line-height:125%;letter-spacing:0px;word-spacing:0px;fill:#000000;fill-opacity:1;stroke:none;font-family:Sans"
           x="18.278749"
           y="719.33582"
           id="text3611-1-4-5"
           sodipodi:linespacing="125%"><tspan
             sodipodi:role="line"
             x="18.278749"
             y="719.33582"
             id="tspan3615-7-0-1">High</tspan></text>
      </g>
      <path
         inkscape:connector-curvature="0"
         id="path4576"
         d="m -378.657,735.79518 126.42857,0"
         style="fill:none;stroke:#000000;stroke-width:1px;stroke-linecap:butt;stroke-linejoin:miter;stroke-opacity:1;marker-start:url(#DotM);marker-mid:none;marker-end:url(#DotM)" />
      <path
         inkscape:connector-curvature="0"
         id="path4576-2"
         d="m -218.24944,735.79518 126.428578,0"
         style="fill:none;stroke:#000000;stroke-width:1px;stroke-linecap:butt;stroke-linejoin:miter;stroke-opacity:1;marker-start:url(#DotM);marker-mid:none;marker-end:url(#DotM)" />
      <path
         inkscape:connector-curvature="0"
         id="path4576-23"
         d="m -57.841816,735.79518 126.42857,0"
         style="fill:none;stroke:#000000;stroke-width:1px;stroke-linecap:butt;stroke-linejoin:miter;stroke-opacity:1;marker-start:url(#DotM);marker-mid:none;marker-end:url(#DotM)" />
      <text
         sodipodi:linespacing="125%"
         id="text3611-1-22"
         y="762.36157"
         x="-365.12628"
         style="font-size:20px;font-style:normal;font-weight:normal;line-height:125%;letter-spacing:0px;word-spacing:0px;fill:#000000;fill-opacity:1;stroke:none;font-family:Sans"
         xml:space="preserve"><tspan
           id="tspan3615-7-1"
           y="762.36157"
           x="-365.12628"
           sodipodi:role="line">Alphaslider</tspan></text>
      <text
         sodipodi:linespacing="125%"
         id="text3611-1-6"
         y="762.36157"
         x="-203.02925"
         style="font-size:20px;font-style:normal;font-weight:normal;line-height:125%;letter-spacing:0px;word-spacing:0px;fill:#000000;fill-opacity:1;stroke:none;font-family:Sans"
         xml:space="preserve"><tspan
           id="tspan3615-7-8"
           y="762.36157"
           x="-203.02925"
           sodipodi:role="line">ActiveArea</tspan></text>
      <text
         sodipodi:linespacing="125%"
         id="text3611-1-5"
         y="762.36157"
         x="-37.397022"
         style="font-size:20px;font-style:normal;font-weight:normal;line-height:125%;letter-spacing:0px;word-spacing:0px;fill:#000000;fill-opacity:1;stroke:none;font-family:Sans"
         xml:space="preserve"><tspan
           id="tspan3615-7-7"
           y="762.36157"
           x="-37.397022"
           sodipodi:role="line">ActiveList</tspan></text>
      <rect
         y="395.56058"
         x="-400.04977"
         height="39.419907"
         width="486.69141"
         id="rect5946"
         style="fill:#ffffff;fill-opacity:1;stroke:#000000;stroke-width:0.97760612;stroke-miterlimit:4;stroke-dasharray:none;stroke-dashoffset:0" />
      <rect
         y="405.07166"
         x="-390.03888"
         height="20"
         width="20"
         id="rect5864"
         style="fill:#3e58ac;fill-opacity:1;stroke:#000000;stroke-width:1;stroke-miterlimit:4;stroke-dasharray:none;stroke-dashoffset:0" />
      <text
         sodipodi:linespacing="125%"
         id="text3611-1-22-6"
         y="422.01035"
         x="-361.40396"
         style="font-size:18px;font-style:normal;font-weight:normal;line-height:125%;letter-spacing:0px;word-spacing:0px;fill:#000000;fill-opacity:1;stroke:none;font-family:Sans"
         xml:space="preserve"><tspan
           id="tspan3615-7-1-1"
           y="422.01035"
           x="-361.40396"
           sodipodi:role="line">Input Distortion</tspan></text>
      <rect
         y="405.07187"
         x="-216.03406"
         height="20"
         width="20"
         id="rect5864-8"
         style="fill:#2eb848;fill-opacity:1;stroke:#000000;stroke-width:1;stroke-miterlimit:4;stroke-dasharray:none;stroke-dashoffset:0" />
      <text
         sodipodi:linespacing="125%"
         id="text3611-1-22-6-9"
         y="422.01035"
         x="-187.07727"
         style="font-size:18px;font-style:normal;font-weight:normal;line-height:125%;letter-spacing:0px;word-spacing:0px;fill:#000000;fill-opacity:1;stroke:none;font-family:Sans"
         xml:space="preserve"><tspan
           id="tspan3615-7-1-1-2"
           y="422.01035"
           x="-187.07727"
           sodipodi:role="line">Display Distortion</tspan></text>
      <text
         xml:space="preserve"
         style="font-size:18px;font-style:normal;font-weight:normal;line-height:125%;letter-spacing:0px;word-spacing:0px;fill:#000000;fill-opacity:1;stroke:none;font-family:Sans"
         x="-24.506216"
         y="422.23007"
         id="text3611-1-22-6-7"
         sodipodi:linespacing="125%"><tspan
           sodipodi:role="line"
           x="-24.506216"
           y="422.23007"
           id="tspan3615-7-1-1-9">Bars +/-1 SE</tspan></text>
      <path
         id="path3340"
         d="m -137.33705,466.07206 6.36452,0 m -3.18226,0 0,-38.8434 m -3.18226,0 6.36452,0"
         style="fill:none;stroke:#000000;stroke-width:0.51141715px;stroke-linecap:butt;stroke-linejoin:miter;stroke-miterlimit:4;stroke-opacity:1;stroke-dasharray:none"
         inkscape:connector-curvature="0" />
    </g>
  </g>
</svg>
